<svg version="1.1" id="Layer_1" xmlns="http://www.w3.org/2000/svg" xmlns:xlink="http://www.w3.org/1999/xlink" x="0px" y="0px"
	 width="100%" viewBox="0 0 207 148" enable-background="new 0 0 207 148" xml:space="preserve">
<path fill="#1C2024" opacity="1.000000" stroke="none" 
	d="
M127.000000,149.000000 
	C84.696144,149.000000 42.892288,149.000000 1.044217,149.000000 
	C1.044217,99.730942 1.044217,50.461830 1.044217,1.096360 
	C69.887024,1.096360 138.774216,1.096360 207.830719,1.096360 
	C207.830719,50.332867 207.830719,99.666382 207.830719,149.000000 
	C181.128815,149.000000 154.314407,149.000000 127.000000,149.000000 
M127.504814,37.510357 
	C132.145004,36.137421 136.785202,34.764484 141.425400,33.391552 
	C142.008789,38.725769 142.597946,44.059376 143.160828,49.395760 
	C143.193665,49.707100 142.907394,50.056725 142.952744,50.361267 
	C143.093323,51.305592 143.018906,52.497234 143.564255,53.132511 
	C148.714493,59.132149 149.185394,66.214172 149.210114,73.715118 
	C149.252029,86.437561 143.281479,97.931641 130.854065,102.217720 
	C126.744156,103.635185 122.456886,104.538383 118.488808,105.612282 
	C119.343987,107.758270 120.188072,109.876442 120.546570,112.363457 
	C120.679993,113.239822 120.813416,114.116188 121.144844,115.784996 
	C121.154694,121.934509 121.165749,128.084015 121.174057,134.233536 
	C121.182762,140.673355 123.814667,142.435898 129.911819,140.112106 
	C146.023178,133.971619 158.174026,123.204422 166.612732,108.284477 
	C184.713425,76.281845 173.501572,33.442734 142.110245,14.872978 
	C115.155006,-1.072575 87.969589,0.114705 62.733990,17.496170 
	C40.723148,32.656525 26.439663,64.520164 36.549892,94.333496 
	C41.488655,108.897064 49.078636,121.513603 61.455158,130.580902 
	C67.367393,134.912338 74.660622,137.314072 81.116287,140.964844 
	C85.125298,143.231995 86.543549,140.738571 86.901451,137.919266 
	C87.435219,133.714539 87.039925,129.391861 87.039925,125.160149 
	C83.901535,125.160149 81.431793,125.113144 78.964371,125.168877 
	C71.242592,125.343277 65.638596,122.604172 62.426491,114.978012 
	C61.016197,111.629692 57.802288,109.031998 55.362324,106.131325 
	C54.508064,105.115738 53.519039,104.213509 52.157417,102.812965 
	C57.382153,101.199844 60.793831,102.466492 63.645374,105.807526 
	C67.330597,110.125359 70.415947,115.064171 76.440964,116.785728 
	C78.780037,117.454071 86.731270,115.657814 87.595650,113.604843 
	C88.737556,110.892746 89.733253,108.119087 90.842789,105.239555 
	C90.341835,105.172325 89.717285,105.106339 89.098984,105.002953 
	C65.569130,101.068382 52.904312,80.681656 62.004837,60.226189 
	C64.519852,54.573128 65.699127,49.529125 65.826889,43.324234 
	C66.046547,32.656677 66.119652,30.511591 78.175041,36.027721 
	C82.177475,37.859100 86.675583,38.607227 91.495697,40.417267 
	C92.118134,40.591606 92.736168,40.899460 93.363678,40.920181 
	C102.135529,41.209824 110.915024,41.740105 119.677429,41.541058 
	C122.144089,41.485027 124.561508,39.261524 127.504814,37.510357 
z"/>
<path fill="#FBFBFB" opacity="1.000000" stroke="none" 
	d="
M121.032166,111.994614 
	C120.188072,109.876442 119.343987,107.758270 118.488808,105.612282 
	C122.456886,104.538383 126.744156,103.635185 130.854065,102.217720 
	C143.281479,97.931641 149.252029,86.437561 149.210114,73.715118 
	C149.185394,66.214172 148.714493,59.132149 143.564255,53.132511 
	C143.018906,52.497234 143.093323,51.305592 142.952744,50.361267 
	C142.907394,50.056725 143.193665,49.707100 143.160828,49.395760 
	C142.597946,44.059376 142.008789,38.725769 141.425400,33.391552 
	C136.785202,34.764484 132.145004,36.137421 126.878265,37.824570 
	C123.647118,38.599468 121.051872,39.386868 118.436234,39.461765 
	C109.276978,39.724056 100.110695,39.740673 90.947075,39.850597 
	C86.675583,38.607227 82.177475,37.859100 78.175041,36.027721 
	C66.119652,30.511591 66.046547,32.656677 65.826889,43.324234 
	C65.699127,49.529125 64.519852,54.573128 62.004837,60.226189 
	C52.904312,80.681656 65.569130,101.068382 89.098984,105.002953 
	C89.717285,105.106339 90.341835,105.172325 90.842789,105.239555 
	C89.733253,108.119087 88.737556,110.892746 87.595650,113.604843 
	C86.731270,115.657814 78.780037,117.454071 76.440964,116.785728 
	C70.415947,115.064171 67.330597,110.125359 63.645374,105.807526 
	C60.793831,102.466492 57.382153,101.199844 52.157417,102.812965 
	C53.519039,104.213509 54.508064,105.115738 55.362324,106.131325 
	C57.802288,109.031998 61.016197,111.629692 62.426491,114.978012 
	C65.638596,122.604172 71.242592,125.343277 78.964371,125.168877 
	C81.431793,125.113144 83.901535,125.160149 87.039925,125.160149 
	C87.039925,129.391861 87.435219,133.714539 86.901451,137.919266 
	C86.543549,140.738571 85.125298,143.231995 81.116287,140.964844 
	C74.660622,137.314072 67.367393,134.912338 61.455158,130.580902 
	C49.078636,121.513603 41.488655,108.897064 36.549892,94.333496 
	C26.439663,64.520164 40.723148,32.656525 62.733990,17.496170 
	C87.969589,0.114705 115.155006,-1.072575 142.110245,14.872978 
	C173.501572,33.442734 184.713425,76.281845 166.612732,108.284477 
	C158.174026,123.204422 146.023178,133.971619 129.911819,140.112106 
	C123.814667,142.435898 121.182762,140.673355 121.174057,134.233536 
	C121.165749,128.084015 121.154694,121.934509 121.153198,115.014488 
	C121.118423,113.494194 121.075294,112.744400 121.032166,111.994614 
z"/>
<path fill="#242529" opacity="1.000000" stroke="none" 
	d="
M91.221390,40.133934 
	C100.110695,39.740673 109.276978,39.724056 118.436234,39.461765 
	C121.051872,39.386868 123.647118,38.599468 126.626617,38.085480 
	C124.561508,39.261524 122.144089,41.485027 119.677429,41.541058 
	C110.915024,41.740105 102.135529,41.209824 93.363678,40.920181 
	C92.736168,40.899460 92.118134,40.591606 91.221390,40.133934 
z"/>
<path fill="#12171B" opacity="1.000000" stroke="none" 
	d="
M120.789368,112.179031 
	C121.075294,112.744400 121.118423,113.494194 121.054192,114.618271 
	C120.813416,114.116188 120.679993,113.239822 120.789368,112.179031 
z"/>
</svg>