<svg version="1.1" id="Layer_1" xmlns="http://www.w3.org/2000/svg" xmlns:xlink="http://www.w3.org/1999/xlink" x="0px" y="0px"
	 width="100%" viewBox="0 0 225 225" enable-background="new 0 0 225 225" xml:space="preserve">
<path fill="#000000" opacity="1.000000" stroke="none" 
	d="
M131.000000,226.000000 
	C87.333336,226.000000 44.166672,226.000000 1.000006,226.000000 
	C1.000004,151.000000 1.000004,76.000015 1.000002,1.000016 
	C75.999992,1.000011 150.999985,1.000011 225.999969,1.000005 
	C225.999985,75.999985 225.999985,150.999969 226.000000,225.999969 
	C194.500000,226.000000 163.000000,226.000000 131.000000,226.000000 
M59.963749,35.369919 
	C42.030979,42.765388 32.871189,56.807739 32.238110,75.548561 
	C31.395819,100.482368 31.409233,125.482635 32.147835,150.421982 
	C32.922596,176.582520 50.377537,194.057312 76.472954,194.847427 
	C101.079865,195.592468 125.744553,195.604843 150.351227,194.861206 
	C176.549393,194.069458 194.065552,176.641464 194.843231,150.598022 
	C195.582993,125.824684 195.569046,100.994911 194.837463,76.220924 
	C194.077393,50.481522 176.477203,33.106274 150.668808,32.115944 
	C129.884796,31.318407 109.054192,31.145367 88.258553,31.510290 
	C79.055046,31.671793 69.886871,33.846901 59.963749,35.369919 
z"/>
<path fill="#FAFAFA" opacity="1.000000" stroke="none" 
	d="
M60.333206,35.238922 
	C69.886871,33.846901 79.055046,31.671793 88.258553,31.510290 
	C109.054192,31.145367 129.884796,31.318407 150.668808,32.115944 
	C176.477203,33.106274 194.077393,50.481522 194.837463,76.220924 
	C195.569046,100.994911 195.582993,125.824684 194.843231,150.598022 
	C194.065552,176.641464 176.549393,194.069458 150.351227,194.861206 
	C125.744553,195.604843 101.079865,195.592468 76.472954,194.847427 
	C50.377537,194.057312 32.922596,176.582520 32.147835,150.421982 
	C31.409233,125.482635 31.395819,100.482368 32.238110,75.548561 
	C32.871189,56.807739 42.030979,42.765388 60.333206,35.238922 
M161.065857,177.819000 
	C174.504471,172.596451 179.827988,161.854950 180.026520,148.385391 
	C180.367508,125.251648 180.409988,102.104843 180.044403,78.971962 
	C179.727402,58.914112 168.177536,47.291336 148.208435,46.963409 
	C125.076416,46.583538 101.928612,46.583736 78.796585,46.963181 
	C58.825237,47.290783 47.275463,58.911804 46.955490,78.966949 
	C46.589077,101.932678 46.583797,124.913658 46.964703,147.878998 
	C47.302570,168.249863 58.760567,179.553421 79.142609,180.069199 
	C97.282997,180.528259 115.439400,180.838516 133.580215,180.590744 
	C142.497253,180.468948 151.394989,178.934875 161.065857,177.819000 
z"/>
<path fill="#030303" opacity="1.000000" stroke="none" 
	d="
M160.683655,177.929474 
	C151.394989,178.934875 142.497253,180.468948 133.580215,180.590744 
	C115.439400,180.838516 97.282997,180.528259 79.142609,180.069199 
	C58.760567,179.553421 47.302570,168.249863 46.964703,147.878998 
	C46.583797,124.913658 46.589077,101.932678 46.955490,78.966949 
	C47.275463,58.911804 58.825237,47.290783 78.796585,46.963181 
	C101.928612,46.583736 125.076416,46.583538 148.208435,46.963409 
	C168.177536,47.291336 179.727402,58.914112 180.044403,78.971962 
	C180.409988,102.104843 180.367508,125.251648 180.026520,148.385391 
	C179.827988,161.854950 174.504471,172.596451 160.683655,177.929474 
M90.578751,78.003242 
	C72.457550,90.323128 66.174919,112.184418 75.200363,131.514511 
	C83.794357,149.920578 104.826607,159.868179 124.307693,154.309525 
	C141.567215,149.384750 152.202728,137.854034 155.127136,120.125343 
	C157.959900,102.952179 151.768539,88.798332 137.626526,78.933830 
	C122.738220,68.548759 106.940758,68.504318 90.578751,78.003242 
M155.828720,59.878620 
	C150.306900,61.548664 147.204498,64.845169 147.342407,69.471230 
	C147.477173,73.991768 149.614548,77.427109 154.038727,79.008644 
	C158.023636,80.433144 161.618118,79.498550 164.533493,76.509857 
	C167.500458,73.468292 168.052338,69.673439 166.517578,65.882851 
	C164.791336,61.619389 161.343826,59.548805 155.828720,59.878620 
z"/>
<path fill="#FBFBFB" opacity="1.000000" stroke="none" 
	d="
M90.880524,77.798103 
	C106.940758,68.504318 122.738220,68.548759 137.626526,78.933830 
	C151.768539,88.798332 157.959900,102.952179 155.127136,120.125343 
	C152.202728,137.854034 141.567215,149.384750 124.307693,154.309525 
	C104.826607,159.868179 83.794357,149.920578 75.200363,131.514511 
	C66.174919,112.184418 72.457550,90.323128 90.880524,77.798103 
M91.179451,97.811775 
	C84.171928,109.109192 84.579765,121.038605 92.304092,130.707825 
	C99.234276,139.382950 111.221451,142.897491 121.958160,139.402161 
	C133.064819,135.786362 140.599350,125.595726 140.799057,113.919304 
	C140.997375,102.324249 133.696579,91.780167 122.752563,87.855911 
	C111.353249,83.768387 99.791901,87.253456 91.179451,97.811775 
z"/>
<path fill="#F8F8F8" opacity="1.000000" stroke="none" 
	d="
M156.238708,59.838783 
	C161.343826,59.548805 164.791336,61.619389 166.517578,65.882851 
	C168.052338,69.673439 167.500458,73.468292 164.533493,76.509857 
	C161.618118,79.498550 158.023636,80.433144 154.038727,79.008644 
	C149.614548,77.427109 147.477173,73.991768 147.342407,69.471230 
	C147.204498,64.845169 150.306900,61.548664 156.238708,59.838783 
z"/>
<path fill="#020202" opacity="1.000000" stroke="none" 
	d="
M91.405151,97.524521 
	C99.791901,87.253456 111.353249,83.768387 122.752563,87.855911 
	C133.696579,91.780167 140.997375,102.324249 140.799057,113.919304 
	C140.599350,125.595726 133.064819,135.786362 121.958160,139.402161 
	C111.221451,142.897491 99.234276,139.382950 92.304092,130.707825 
	C84.579765,121.038605 84.171928,109.109192 91.405151,97.524521 
z"/>
</svg>