<svg version="1.1" id="Layer_1" xmlns="http://www.w3.org/2000/svg" xmlns:xlink="http://www.w3.org/1999/xlink" x="0px" y="0px"
	 width="100%" viewBox="0 0 225 225" enable-background="new 0 0 225 225" xml:space="preserve">
<path fill="#FEFEFE" opacity="1.000000" stroke="none" 
	d="
M122.000000,226.000000 
	C81.333336,226.000000 41.166672,226.000000 1.000005,226.000000 
	C1.000004,151.000000 1.000004,76.000015 1.000002,1.000015 
	C75.999992,1.000010 150.999985,1.000010 225.999969,1.000005 
	C225.999985,75.999985 225.999985,150.999969 226.000000,225.999969 
	C191.500000,226.000000 157.000000,226.000000 122.000000,226.000000 
M97.989784,16.316872 
	C94.069191,17.196695 90.110909,17.936832 86.235016,18.982361 
	C74.291664,22.204100 63.332371,27.790840 53.813419,35.436798 
	C23.083031,60.120533 10.573367,92.209755 16.859795,131.253632 
	C22.578831,166.773560 51.610653,202.844528 97.950394,210.702606 
	C135.375443,217.048996 177.248749,198.579056 196.574966,165.626495 
	C205.689514,150.085556 211.415222,134.038376 211.818680,116.385719 
	C212.840149,71.694283 186.251892,35.740128 147.183060,21.186516 
	C132.896835,15.864717 117.937721,12.439632 102.433655,16.757715 
	C101.347427,17.060244 99.982552,16.362246 97.989784,16.316872 
z"/>
<path fill="#191919" opacity="1.000000" stroke="none" 
	d="
M98.368515,16.223186 
	C99.982552,16.362246 101.347427,17.060244 102.433655,16.757715 
	C117.937721,12.439632 132.896835,15.864717 147.183060,21.186516 
	C186.251892,35.740128 212.840149,71.694283 211.818680,116.385719 
	C211.415222,134.038376 205.689514,150.085556 196.574966,165.626495 
	C177.248749,198.579056 135.375443,217.048996 97.950394,210.702606 
	C51.610653,202.844528 22.578831,166.773560 16.859795,131.253632 
	C10.573367,92.209755 23.083031,60.120533 53.813419,35.436798 
	C63.332371,27.790840 74.291664,22.204100 86.235016,18.982361 
	C90.110909,17.936832 94.069191,17.196695 98.368515,16.223186 
M63.708122,93.000046 
	C63.708122,113.934120 63.708122,134.868195 63.708122,155.875122 
	C71.204033,155.875122 78.275970,155.875122 85.398926,155.875122 
	C85.398926,133.906616 85.398926,112.219101 85.398926,89.765984 
	C77.871689,90.232819 70.700699,90.677559 63.070198,91.233749 
	C62.955273,91.337097 62.840343,91.440437 62.725410,91.543777 
	C62.965057,91.732231 63.204704,91.920677 63.708122,93.000046 
M143.688629,156.141815 
	C150.601929,156.141815 157.515244,156.141815 164.821121,156.141815 
	C164.821121,141.970947 164.821121,128.510498 165.202393,114.809204 
	C165.024612,114.504456 164.846817,114.199707 164.245773,113.277534 
	C162.660690,98.611000 154.345200,89.719467 141.891830,88.907127 
	C133.993713,88.391922 127.179138,90.469643 121.160927,97.027672 
	C120.273888,94.172066 119.690506,92.294014 119.109207,90.422684 
	C112.061073,90.422684 105.130783,90.422684 97.955833,90.422684 
	C97.955833,112.350334 97.955833,134.047882 97.955833,155.894165 
	C105.233208,155.894165 112.296387,155.894165 119.758560,155.894165 
	C119.758560,143.862869 119.710136,132.084473 119.800568,120.307137 
	C119.818062,118.029175 119.955818,115.589714 120.770592,113.511993 
	C122.870483,108.157234 128.473267,105.156013 133.557266,106.226273 
	C139.551788,107.488197 142.172775,111.612549 141.559479,120.428436 
	C141.381180,131.597275 141.171661,142.765900 141.098633,153.935425 
	C141.094025,154.638962 142.154480,155.349472 143.688629,156.141815 
M70.022095,59.259590 
	C63.109257,62.921623 60.772064,68.024155 63.169991,74.219017 
	C65.318352,79.769142 71.719856,82.567825 78.521156,80.930397 
	C84.075264,79.593246 87.606323,74.420708 86.960022,68.568581 
	C86.161423,61.337318 80.226112,57.857430 70.022095,59.259590 
z"/>
<path fill="#FBFBFB" opacity="1.000000" stroke="none" 
	d="
M164.821121,115.050041 
	C164.821121,128.510498 164.821121,141.970947 164.821121,156.141815 
	C157.515244,156.141815 150.601929,156.141815 143.134888,155.631195 
	C142.471634,143.383438 142.362122,131.646286 142.252609,119.909149 
	C142.172775,111.612549 139.551788,107.488197 133.557266,106.226273 
	C128.473267,105.156013 122.870483,108.157234 120.770592,113.511993 
	C119.955818,115.589714 119.818062,118.029175 119.800568,120.307137 
	C119.710136,132.084473 119.758560,143.862869 119.758560,155.894165 
	C112.296387,155.894165 105.233208,155.894165 97.955833,155.894165 
	C97.955833,134.047882 97.955833,112.350334 97.955833,90.422684 
	C105.130783,90.422684 112.061073,90.422684 119.109207,90.422684 
	C119.690506,92.294014 120.273888,94.172066 121.160927,97.027672 
	C127.179138,90.469643 133.993713,88.391922 141.891830,88.907127 
	C154.345200,89.719467 162.660690,98.611000 164.405365,113.886917 
	C164.650345,114.680878 164.735733,114.865456 164.821121,115.050041 
z"/>
<path fill="#FAFAFA" opacity="1.000000" stroke="none" 
	d="
M63.529705,91.122307 
	C70.700699,90.677559 77.871689,90.232819 85.398926,89.765984 
	C85.398926,112.219101 85.398926,133.906616 85.398926,155.875122 
	C78.275970,155.875122 71.204033,155.875122 63.708122,155.875122 
	C63.708122,134.868195 63.708122,113.934120 63.676010,92.314644 
	C63.605831,91.460258 63.567768,91.291283 63.529705,91.122307 
z"/>
<path fill="#FBFBFB" opacity="1.000000" stroke="none" 
	d="
M70.392235,59.165718 
	C80.226112,57.857430 86.161423,61.337318 86.960022,68.568581 
	C87.606323,74.420708 84.075264,79.593246 78.521156,80.930397 
	C71.719856,82.567825 65.318352,79.769142 63.169991,74.219017 
	C60.772064,68.024155 63.109257,62.921623 70.392235,59.165718 
z"/>
<path fill="#000000" opacity="1.000000" stroke="none" 
	d="
M141.906036,120.168793 
	C142.362122,131.646286 142.471634,143.383438 142.650284,155.588654 
	C142.154480,155.349472 141.094025,154.638962 141.098633,153.935425 
	C141.171661,142.765900 141.381180,131.597275 141.906036,120.168793 
z"/>
<path fill="#090909" opacity="1.000000" stroke="none" 
	d="
M63.299950,91.178024 
	C63.567768,91.291283 63.605831,91.460258 63.544121,91.869186 
	C63.204704,91.920677 62.965057,91.732231 62.725410,91.543777 
	C62.840343,91.440437 62.955273,91.337097 63.299950,91.178024 
z"/>
<path fill="#000000" opacity="1.000000" stroke="none" 
	d="
M165.011749,114.929626 
	C164.735733,114.865456 164.650345,114.680878 164.617004,114.195633 
	C164.846817,114.199707 165.024612,114.504456 165.011749,114.929626 
z"/>
</svg>