<svg version="1.1" id="Layer_1" xmlns="http://www.w3.org/2000/svg" xmlns:xlink="http://www.w3.org/1999/xlink" x="0px" y="0px"
	 width="100%" viewBox="0 0 224 224" enable-background="new 0 0 224 224" xml:space="preserve">
<path fill="#000000" opacity="1.000000" stroke="none" 
	d="
M136.999939,173.284805 
	C107.512421,173.286285 78.524887,173.297394 49.537376,173.283081 
	C41.756557,173.279236 40.123051,171.703934 40.130859,163.921432 
	C40.160267,134.604599 40.204700,105.287590 40.349812,75.971169 
	C40.384773,68.908058 41.831001,67.673836 49.055260,67.672089 
	C94.369087,67.661148 139.682922,67.661865 184.996750,67.677956 
	C192.261475,67.680542 193.339554,68.788620 193.342651,76.128288 
	C193.355118,105.615601 193.356079,135.102905 193.343887,164.590225 
	C193.340912,171.787598 191.876389,173.246094 184.478790,173.264847 
	C168.819260,173.304535 153.159576,173.281937 136.999939,173.284805 
M166.175613,162.609009 
	C169.413071,162.460007 172.709274,162.951141 176.713058,161.817383 
	C165.139084,146.645569 153.931137,131.953552 142.507843,116.979256 
	C135.386688,122.730934 128.799316,127.787125 122.531464,133.212448 
	C118.729546,136.503296 115.511391,136.855179 111.600494,133.459061 
	C106.326752,128.879501 100.557709,124.859589 95.396820,120.164650 
	C92.118744,117.182526 90.272270,117.881134 87.917953,121.065674 
	C81.292152,130.027985 74.367256,138.769714 67.772293,147.754059 
	C64.391472,152.359772 60.324314,156.516617 57.243916,162.609192 
	C93.762451,162.609192 129.507034,162.609192 166.175613,162.609009 
M149.499557,78.341637 
	C120.681526,78.341637 91.863503,78.341637 63.045471,78.341637 
	C62.940773,78.843773 62.836071,79.345917 62.731369,79.848053 
	C80.033028,93.878624 97.360329,107.877853 114.603210,121.980286 
	C116.707214,123.701088 118.027992,122.978233 119.748405,121.575432 
	C135.490875,108.739296 151.289139,95.971558 167.021362,83.122932 
	C168.198334,82.161705 169.991928,81.422943 169.638062,78.337921 
	C163.322617,78.337921 156.910751,78.337921 149.499557,78.341637 
M168.439224,133.090881 
	C172.896591,138.658630 176.782349,144.712723 182.145569,150.203110 
	C182.145569,128.261307 182.145569,107.146576 182.145569,84.820663 
	C171.261047,93.674469 161.285477,101.788895 151.017654,110.141060 
	C156.968079,117.989487 162.481888,125.262039 168.439224,133.090881 
M51.199326,143.286011 
	C51.199326,145.543198 51.199326,147.800369 51.199326,151.550629 
	C62.221649,137.087189 72.327858,123.825867 82.791298,110.095795 
	C72.391045,101.722282 62.374294,93.657532 52.357544,85.592789 
	C51.973202,85.920670 51.588863,86.248550 51.204525,86.576424 
	C51.204525,105.166603 51.204525,123.756775 51.199326,143.286011 
z"/>
</svg>